<?xml version="1.0" encoding="UTF-8"?>
<!--
  Lumos logo mark: symmetric tree-of-life silhouette (not antenna, tower, or candle).
  Colors: Lumos landing / map palette - navy field, warm gold, subtle sky-cyan rim.
-->
<svg xmlns="http://www.w3.org/2000/svg" viewBox="0 0 64 64" role="img" aria-labelledby="lumos-logo-title">
  <title id="lumos-logo-title">Lumos</title>
  <defs>
    <linearGradient id="lumos-gold" x1="20" y1="8" x2="44" y2="52" gradientUnits="userSpaceOnUse">
      <stop offset="0%" stop-color="#f2e6cf"/>
      <stop offset="0.45" stop-color="#d4b87a"/>
      <stop offset="100%" stop-color="#a67c32"/>
    </linearGradient>
    <radialGradient id="lumos-edge-glow" cx="32" cy="32" r="32" gradientUnits="userSpaceOnUse">
      <stop offset="74%" stop-color="#03060d" stop-opacity="0"/>
      <stop offset="100%" stop-color="#38bdf8" stop-opacity="0.1"/>
    </radialGradient>
  </defs>

  <rect width="64" height="64" fill="#03060d"/>

  <circle cx="32" cy="32" r="30" fill="#050810"/>
  <circle cx="32" cy="32" r="30" fill="url(#lumos-edge-glow)"/>
  <circle
    cx="32"
    cy="32"
    r="30"
    fill="none"
    stroke="#38bdf8"
    stroke-width="0.55"
    stroke-opacity="0.24"
  />

  <g
    fill="none"
    stroke="url(#lumos-gold)"
    stroke-width="1.5"
    stroke-linecap="round"
    stroke-linejoin="round"
  >
    <path d="M 30.2 47 Q 30.8 38 31.2 30.5"/>
    <path d="M 33.8 47 Q 33.2 38 32.8 30.5"/>

    <path d="M 31.5 30 Q 24 22 17 14"/>
    <path d="M 31.8 28 Q 26 16 20 10"/>
    <path d="M 32 26 Q 28 12 24 8"/>
    <path d="M 31.2 31 Q 22 26 12 20"/>

    <path d="M 32.5 30 Q 40 22 47 14"/>
    <path d="M 32.2 28 Q 38 16 44 10"/>
    <path d="M 32 26 Q 36 12 40 8"/>
    <path d="M 32.8 31 Q 42 26 52 20"/>

    <path d="M 32 24 Q 28 12 25 8"/>
    <path d="M 32 24 Q 36 12 39 8"/>

    <path d="M 31 45 Q 25 51 19 55"/>
    <path d="M 33 45 Q 39 51 45 55"/>
    <path d="M 31.5 46 Q 28 51 26 54"/>
    <path d="M 32.5 46 Q 36 51 38 54"/>
  </g>
</svg>
